<svg width="315" height="116" viewBox="0 0 315 116" fill="none" xmlns="http://www.w3.org/2000/svg">
<path d="M184.809 62.3633C184.809 61.5723 184.985 60.7373 185.337 59.873C185.688 59.0234 186.347 58.291 187.299 57.6904C187.71 57.4268 188.047 57.1924 188.31 56.958C188.574 56.7236 188.779 56.5039 188.925 56.2695C189.072 56.0352 189.174 55.8154 189.233 55.5811C189.292 55.3467 189.336 55.0977 189.336 54.8047C189.336 54.1309 189.072 53.5889 188.545 53.208C188.017 52.8271 187.168 52.6221 185.966 52.6221C185.732 52.6367 185.586 52.6367 185.498 52.6514C185.41 52.6807 185.307 52.6953 185.19 52.6807C185.073 52.6807 184.985 52.5781 184.926 52.373C184.868 52.168 184.839 51.9775 184.839 51.8018C184.926 49.3115 185.249 46.9531 185.791 44.7559C185.82 44.624 185.923 44.5508 186.084 44.5215C186.245 44.4922 186.494 44.4775 186.816 44.4775C194.272 44.4775 198.008 47.3193 198.008 52.9736C197.993 53.501 197.934 54.043 197.817 54.5996C197.7 55.1562 197.48 55.7129 197.173 56.2549C196.865 56.7969 196.455 57.3242 195.942 57.8223C195.429 58.335 194.785 58.8037 194.008 59.2432C192.866 59.8877 192.016 60.4297 191.46 60.8545C190.903 61.2939 190.625 61.7334 190.625 62.1875C190.625 62.3633 190.654 62.5537 190.713 62.7295C191.548 62.7881 192.324 62.8174 193.056 62.8174C193.774 62.8174 194.419 62.8027 194.975 62.7441C195.532 62.7002 195.942 62.6709 196.235 62.6709C196.382 62.6709 196.469 62.7441 196.469 62.876C196.469 63.125 196.44 63.3887 196.411 63.6816C196.367 63.9746 196.323 64.2529 196.279 64.5166C196.22 64.7803 196.176 65.0293 196.133 65.249C196.074 65.4688 196.03 65.6445 195.986 65.7617C195.942 65.8643 195.825 65.9521 195.634 66.0107C195.444 66.084 195.166 66.1426 194.785 66.1719C194.404 66.2158 193.921 66.2451 193.335 66.2598C192.749 66.2891 192.016 66.2891 191.167 66.2891C190.434 66.2891 189.673 66.2744 188.852 66.2451C188.032 66.2158 187.256 66.2012 186.538 66.2012C186.421 66.2012 186.289 66.1865 186.142 66.1572C185.996 66.1279 185.908 66.0693 185.849 65.9668C185.498 65.3076 185.249 64.6924 185.073 64.1064C184.897 63.5205 184.809 62.9492 184.809 62.3633Z" fill="url(#paint0_linear_6_3)"/>
<path d="M200.842 46.5283C200.842 46.2646 200.96 46.0303 201.209 45.8105C201.443 45.5908 201.78 45.4004 202.19 45.2539C202.6 45.1074 203.069 44.9902 203.611 44.9023C204.138 44.8291 204.724 44.7852 205.354 44.7852C206.673 44.7852 207.888 44.9609 209.031 45.2979C210.174 45.6494 211.17 46.1768 212.019 46.8945C212.869 47.6123 213.528 48.5352 214.026 49.6484C214.524 50.7617 214.773 52.1094 214.773 53.6621C214.773 54.5117 214.685 55.2588 214.509 55.9033C214.334 56.5479 214.114 57.1045 213.821 57.5732C213.528 58.042 213.191 58.4229 212.796 58.7451C212.385 59.0674 211.961 59.3018 211.507 59.4775C212.268 59.7119 212.84 60.1074 213.235 60.6787C213.631 61.25 213.836 61.8652 213.836 62.5098C213.836 63.8281 213.147 64.8242 211.77 65.4688C210.393 66.1279 208.43 66.4502 205.896 66.4502C204.988 66.4502 204.417 66.4355 204.168 66.3916C203.904 66.3477 203.787 66.2598 203.787 66.1133C203.787 65.9229 203.787 65.6738 203.816 65.3809C203.831 65.0879 203.86 64.8096 203.919 64.5459C203.977 64.2822 204.036 64.0479 204.124 63.8574C204.197 63.667 204.285 63.5645 204.387 63.5645C204.505 63.5645 204.607 63.5938 204.695 63.623C204.783 63.667 205.003 63.6816 205.354 63.6816C206.262 63.6816 206.922 63.5205 207.317 63.1982C207.698 62.876 207.903 62.5391 207.903 62.1875C207.903 61.9678 207.859 61.7627 207.786 61.5869C207.713 61.4111 207.566 61.25 207.361 61.1182C207.156 61.001 206.848 60.8984 206.438 60.8252C206.028 60.752 205.486 60.708 204.841 60.708C204.636 60.708 204.519 60.5762 204.49 60.3125C204.461 60.0488 204.446 59.6826 204.446 59.2139C204.446 59.082 204.446 58.9648 204.461 58.877C204.461 58.7891 204.519 58.7305 204.636 58.7305C204.768 58.7451 204.929 58.7451 205.12 58.7451C205.31 58.7598 205.574 58.7744 205.925 58.7598C206.819 58.7598 207.434 58.5986 207.771 58.2617C208.108 57.9248 208.284 57.4854 208.284 56.9287C208.284 56.46 208.093 56.0498 207.713 55.7129C207.332 55.376 206.658 55.2002 205.676 55.2002C205.325 55.2002 205.061 55.2148 204.856 55.2441C204.651 55.2734 204.505 55.3027 204.387 55.332C204.27 55.3613 204.182 55.3906 204.124 55.4199C204.065 55.4492 203.992 55.4639 203.933 55.4639C203.787 55.4639 203.611 55.2881 203.406 54.9072C203.201 54.541 202.981 54.0723 202.747 53.501C202.512 52.9443 202.293 52.2998 202.058 51.5967C201.824 50.8936 201.619 50.2197 201.443 49.5605C201.267 48.9014 201.121 48.3008 201.004 47.7441C200.886 47.1875 200.842 46.792 200.842 46.5283Z" fill="url(#paint1_linear_6_3)"/>
<path d="M218.297 55.0098C218.297 54.1162 218.458 53.2812 218.795 52.5049C219.117 51.7432 219.63 51.0547 220.303 50.4395C220.977 49.8389 221.827 49.3408 222.838 48.9307C223.848 48.5352 225.049 48.2568 226.426 48.0811V45.9863C226.426 45.6641 226.544 45.4736 226.807 45.4004C227.071 45.3418 227.393 45.2979 227.803 45.2979C228.272 45.2979 228.756 45.3125 229.254 45.3418C229.752 45.3857 230.22 45.4443 230.66 45.5322C230.748 45.5762 230.821 45.6201 230.85 45.6494C230.88 45.6787 230.894 45.7666 230.894 45.8984C230.865 46.1328 230.85 46.3965 230.865 46.7041C230.85 47.0117 230.85 47.4512 230.836 48.0225C232.271 48.1689 233.502 48.4326 234.556 48.8428C235.596 49.2676 236.446 49.7656 237.105 50.3809C237.764 50.9961 238.248 51.6846 238.555 52.4463C238.863 53.2227 239.024 54.0283 239.024 54.8633C239.024 55.8008 238.863 56.7236 238.555 57.6172C238.248 58.5107 237.764 59.3164 237.091 60.0342C236.417 60.752 235.552 61.3672 234.498 61.8799C233.443 62.3926 232.154 62.7148 230.66 62.8467V65.542C230.66 65.8057 230.631 65.9668 230.572 65.9961C230.513 66.04 230.44 66.0547 230.382 66.0547C230.176 66.084 229.986 66.084 229.796 66.084H229.224C228.873 66.084 228.507 66.0693 228.111 66.0254C227.701 65.9961 227.364 65.9521 227.086 65.9082C226.968 65.8936 226.895 65.8203 226.866 65.6885C226.822 65.5566 226.807 65.3223 226.793 64.9707L226.705 62.8467C223.936 62.5684 221.841 61.7334 220.421 60.3418C219 58.9648 218.297 57.1777 218.297 55.0098ZM224.478 55.3467C224.478 56.2109 224.669 56.9727 225.049 57.6172C225.43 58.2617 225.928 58.7598 226.573 59.0967C226.529 58.0127 226.5 56.9434 226.5 55.8594C226.485 54.7754 226.47 53.6621 226.456 52.5195C225.709 52.6953 225.196 53.0176 224.903 53.4717C224.61 53.9258 224.464 54.5557 224.478 55.3467ZM230.718 58.7891C231.231 58.4082 231.627 57.9248 231.92 57.3389C232.198 56.7529 232.344 56.0938 232.344 55.3467C232.33 53.9404 231.817 53.0322 230.777 52.6221C230.777 53.4131 230.762 54.292 230.762 55.2441C230.748 56.2109 230.733 57.3242 230.718 58.584V58.7891Z" fill="url(#paint2_linear_6_3)"/>
<path d="M242.723 50.5127C242.723 50.3369 242.826 50.1904 243.046 50.0586C243.265 49.9268 243.675 49.8096 244.261 49.707C244.847 49.6191 245.653 49.5459 246.664 49.4873C247.66 49.4287 248.964 49.3994 250.575 49.3994H253.944C254.237 49.4141 254.383 49.5605 254.383 49.8535C254.383 50.7324 254.34 51.5967 254.281 52.4316C254.208 53.2812 254.12 54.0283 254.017 54.6875C253.915 55.3467 253.812 55.874 253.71 56.2695C253.592 56.6797 253.49 56.8848 253.402 56.8701C253.299 56.8701 253.168 56.8701 252.992 56.8555C252.816 56.8555 252.596 56.8408 252.318 56.8115C252.025 56.7969 251.688 56.7822 251.293 56.7676C250.883 56.7676 250.399 56.7529 249.828 56.7529C249.799 56.9141 249.784 57.1191 249.799 57.3828V58.0127C250.37 57.998 250.839 57.9834 251.219 57.9541C251.586 57.9395 251.893 57.9248 252.128 57.8955C252.362 57.8809 252.567 57.8662 252.714 57.8516C252.86 57.8516 253.036 57.8369 253.212 57.8369C253.622 57.8516 253.841 58.0566 253.841 58.4668C253.798 58.7744 253.724 59.126 253.607 59.5215C253.49 59.9316 253.373 60.21 253.285 60.3564C253.08 60.6201 252.303 60.752 250.941 60.752H249.711C249.681 60.9277 249.667 61.1475 249.667 61.3818C249.652 61.6162 249.652 61.8506 249.652 62.0703C249.93 62.1143 250.194 62.1289 250.443 62.1289H251.205C251.527 62.1289 251.835 62.1143 252.142 62.085C252.45 62.0557 252.801 62.041 253.182 62.041C253.373 62.041 253.49 62.0996 253.549 62.2168C253.607 62.334 253.636 62.4805 253.636 62.6416C253.622 63.1982 253.622 63.6816 253.607 64.0918C253.578 64.502 253.534 64.9121 253.49 65.3076C253.461 65.3955 253.373 65.4688 253.226 65.542C253.08 65.6299 252.801 65.7031 252.435 65.7617C252.04 65.8203 251.527 65.8643 250.883 65.8936C250.238 65.9229 249.403 65.9375 248.392 65.9375C247.455 65.9375 246.678 65.9375 246.092 65.9229C245.507 65.9229 245.038 65.8936 244.701 65.835C244.349 65.791 244.1 65.7031 243.954 65.5859C243.807 65.4688 243.719 65.293 243.705 65.0586C243.617 64.4873 243.544 63.7402 243.47 62.832C243.383 61.9238 243.309 60.957 243.221 59.9316C243.133 58.9062 243.075 57.8516 243.016 56.7969C242.958 55.7422 242.899 54.7607 242.87 53.8818C242.826 53.0029 242.797 52.2559 242.767 51.6406C242.738 51.0254 242.723 50.6592 242.723 50.5127Z" fill="url(#paint3_linear_6_3)"/>
<path d="M258.185 51.084C258.185 50.6152 258.229 50.2637 258.317 50.0293C258.405 49.7949 258.522 49.6484 258.639 49.5605C258.991 49.2822 259.562 49.0771 260.353 48.96C261.13 48.8428 262.17 48.7695 263.473 48.7695C264.587 48.7695 265.656 48.916 266.681 49.209C267.692 49.5166 268.586 49.9561 269.362 50.5713C270.124 51.1865 270.739 51.9482 271.208 52.8711C271.662 53.8086 271.896 54.9072 271.896 56.1816C271.882 57.0605 271.75 57.8809 271.486 58.6279C271.222 59.3896 270.724 60.0195 270.036 60.5322C270.505 60.7666 270.9 61.0742 271.222 61.4697C271.53 61.8799 271.691 62.4072 271.691 63.0518C271.691 63.7842 271.501 64.3408 271.149 64.7363C270.783 65.1465 270.329 65.4395 269.801 65.6445C269.259 65.8496 268.674 65.9668 268.044 65.9961C267.414 66.04 266.828 66.0547 266.286 66.0547C265.744 66.084 265.173 66.0986 264.557 66.0986C263.942 66.1133 263.371 66.1133 262.814 66.1133H261.759C261.393 66.1133 260.968 66.0986 260.47 66.0547C259.914 66.0254 259.548 65.8789 259.372 65.6152C259.196 65.3516 259.108 64.9707 259.093 64.458C259.093 63.8135 259.064 63.0811 259.006 62.2461C258.947 61.4111 258.888 60.5322 258.83 59.6094C258.757 58.6865 258.683 57.7637 258.61 56.8408C258.522 55.9326 258.449 55.083 258.39 54.292C258.332 53.5156 258.273 52.8418 258.244 52.2705C258.2 51.7139 258.185 51.3184 258.185 51.084ZM265.085 63.623C265.114 63.6523 265.216 63.6523 265.392 63.6523C265.509 63.6523 265.627 63.6377 265.773 63.6084C265.92 63.5791 266.051 63.5352 266.198 63.4473C266.33 63.374 266.447 63.2715 266.535 63.1396C266.623 63.0078 266.681 62.8467 266.681 62.6416C266.681 62.4512 266.623 62.29 266.52 62.1582C266.418 62.041 266.3 61.9385 266.154 61.8799C266.008 61.8213 265.832 61.7773 265.641 61.748C265.451 61.7188 265.275 61.7041 265.114 61.7041C265.114 61.8799 265.099 62.0703 265.099 62.2461C265.085 62.4219 265.085 62.6123 265.085 62.7881V63.623ZM265.143 60.2979C265.583 60.2979 265.993 60.1953 266.388 59.9756C266.769 59.7705 266.974 59.375 267.004 58.7891C267.004 58.3496 266.886 57.9834 266.667 57.6758C266.447 57.3682 266.11 57.207 265.656 57.207H265.451C265.363 57.2217 265.29 57.2217 265.246 57.2363C265.202 57.7051 265.173 58.2178 265.158 58.7744C265.143 59.3311 265.143 59.8438 265.143 60.2979Z" fill="url(#paint4_linear_6_3)"/>
<path d="M184.809 62.3633C184.809 61.5723 184.985 60.7373 185.337 59.873C185.688 59.0234 186.347 58.291 187.299 57.6904C187.71 57.4268 188.047 57.1924 188.31 56.958C188.574 56.7236 188.779 56.5039 188.925 56.2695C189.072 56.0352 189.174 55.8154 189.233 55.5811C189.292 55.3467 189.336 55.0977 189.336 54.8047C189.336 54.1309 189.072 53.5889 188.545 53.208C188.017 52.8271 187.168 52.6221 185.966 52.6221C185.732 52.6367 185.586 52.6367 185.498 52.6514C185.41 52.6807 185.307 52.6953 185.19 52.6807C185.073 52.6807 184.985 52.5781 184.926 52.373C184.868 52.168 184.839 51.9775 184.839 51.8018C184.926 49.3115 185.249 46.9531 185.791 44.7559C185.82 44.624 185.923 44.5508 186.084 44.5215C186.245 44.4922 186.494 44.4775 186.816 44.4775C194.272 44.4775 198.008 47.3193 198.008 52.9736C197.993 53.501 197.934 54.043 197.817 54.5996C197.7 55.1562 197.48 55.7129 197.173 56.2549C196.865 56.7969 196.455 57.3242 195.942 57.8223C195.429 58.335 194.785 58.8037 194.008 59.2432C192.866 59.8877 192.016 60.4297 191.46 60.8545C190.903 61.2939 190.625 61.7334 190.625 62.1875C190.625 62.3633 190.654 62.5537 190.713 62.7295C191.548 62.7881 192.324 62.8174 193.056 62.8174C193.774 62.8174 194.419 62.8027 194.975 62.7441C195.532 62.7002 195.942 62.6709 196.235 62.6709C196.382 62.6709 196.469 62.7441 196.469 62.876C196.469 63.125 196.44 63.3887 196.411 63.6816C196.367 63.9746 196.323 64.2529 196.279 64.5166C196.22 64.7803 196.176 65.0293 196.133 65.249C196.074 65.4688 196.03 65.6445 195.986 65.7617C195.942 65.8643 195.825 65.9521 195.634 66.0107C195.444 66.084 195.166 66.1426 194.785 66.1719C194.404 66.2158 193.921 66.2451 193.335 66.2598C192.749 66.2891 192.016 66.2891 191.167 66.2891C190.434 66.2891 189.673 66.2744 188.852 66.2451C188.032 66.2158 187.256 66.2012 186.538 66.2012C186.421 66.2012 186.289 66.1865 186.142 66.1572C185.996 66.1279 185.908 66.0693 185.849 65.9668C185.498 65.3076 185.249 64.6924 185.073 64.1064C184.897 63.5205 184.809 62.9492 184.809 62.3633Z" stroke="#89AA4F" stroke-width="0.5"/>
<path d="M200.842 46.5283C200.842 46.2646 200.96 46.0303 201.209 45.8105C201.443 45.5908 201.78 45.4004 202.19 45.2539C202.6 45.1074 203.069 44.9902 203.611 44.9023C204.138 44.8291 204.724 44.7852 205.354 44.7852C206.673 44.7852 207.888 44.9609 209.031 45.2979C210.174 45.6494 211.17 46.1768 212.019 46.8945C212.869 47.6123 213.528 48.5352 214.026 49.6484C214.524 50.7617 214.773 52.1094 214.773 53.6621C214.773 54.5117 214.685 55.2588 214.509 55.9033C214.334 56.5479 214.114 57.1045 213.821 57.5732C213.528 58.042 213.191 58.4229 212.796 58.7451C212.385 59.0674 211.961 59.3018 211.507 59.4775C212.268 59.7119 212.84 60.1074 213.235 60.6787C213.631 61.25 213.836 61.8652 213.836 62.5098C213.836 63.8281 213.147 64.8242 211.77 65.4688C210.393 66.1279 208.43 66.4502 205.896 66.4502C204.988 66.4502 204.417 66.4355 204.168 66.3916C203.904 66.3477 203.787 66.2598 203.787 66.1133C203.787 65.9229 203.787 65.6738 203.816 65.3809C203.831 65.0879 203.86 64.8096 203.919 64.5459C203.977 64.2822 204.036 64.0479 204.124 63.8574C204.197 63.667 204.285 63.5645 204.387 63.5645C204.505 63.5645 204.607 63.5938 204.695 63.623C204.783 63.667 205.003 63.6816 205.354 63.6816C206.262 63.6816 206.922 63.5205 207.317 63.1982C207.698 62.876 207.903 62.5391 207.903 62.1875C207.903 61.9678 207.859 61.7627 207.786 61.5869C207.713 61.4111 207.566 61.25 207.361 61.1182C207.156 61.001 206.848 60.8984 206.438 60.8252C206.028 60.752 205.486 60.708 204.841 60.708C204.636 60.708 204.519 60.5762 204.49 60.3125C204.461 60.0488 204.446 59.6826 204.446 59.2139C204.446 59.082 204.446 58.9648 204.461 58.877C204.461 58.7891 204.519 58.7305 204.636 58.7305C204.768 58.7451 204.929 58.7451 205.12 58.7451C205.31 58.7598 205.574 58.7744 205.925 58.7598C206.819 58.7598 207.434 58.5986 207.771 58.2617C208.108 57.9248 208.284 57.4854 208.284 56.9287C208.284 56.46 208.093 56.0498 207.713 55.7129C207.332 55.376 206.658 55.2002 205.676 55.2002C205.325 55.2002 205.061 55.2148 204.856 55.2441C204.651 55.2734 204.505 55.3027 204.387 55.332C204.27 55.3613 204.182 55.3906 204.124 55.4199C204.065 55.4492 203.992 55.4639 203.933 55.4639C203.787 55.4639 203.611 55.2881 203.406 54.9072C203.201 54.541 202.981 54.0723 202.747 53.501C202.512 52.9443 202.293 52.2998 202.058 51.5967C201.824 50.8936 201.619 50.2197 201.443 49.5605C201.267 48.9014 201.121 48.3008 201.004 47.7441C200.886 47.1875 200.842 46.792 200.842 46.5283Z" stroke="#89AA4F" stroke-width="0.5"/>
<path d="M218.297 55.0098C218.297 54.1162 218.458 53.2812 218.795 52.5049C219.117 51.7432 219.63 51.0547 220.303 50.4395C220.977 49.8389 221.827 49.3408 222.838 48.9307C223.848 48.5352 225.049 48.2568 226.426 48.0811V45.9863C226.426 45.6641 226.544 45.4736 226.807 45.4004C227.071 45.3418 227.393 45.2979 227.803 45.2979C228.272 45.2979 228.756 45.3125 229.254 45.3418C229.752 45.3857 230.22 45.4443 230.66 45.5322C230.748 45.5762 230.821 45.6201 230.85 45.6494C230.88 45.6787 230.894 45.7666 230.894 45.8984C230.865 46.1328 230.85 46.3965 230.865 46.7041C230.85 47.0117 230.85 47.4512 230.836 48.0225C232.271 48.1689 233.502 48.4326 234.556 48.8428C235.596 49.2676 236.446 49.7656 237.105 50.3809C237.764 50.9961 238.248 51.6846 238.555 52.4463C238.863 53.2227 239.024 54.0283 239.024 54.8633C239.024 55.8008 238.863 56.7236 238.555 57.6172C238.248 58.5107 237.764 59.3164 237.091 60.0342C236.417 60.752 235.552 61.3672 234.498 61.8799C233.443 62.3926 232.154 62.7148 230.66 62.8467V65.542C230.66 65.8057 230.631 65.9668 230.572 65.9961C230.513 66.04 230.44 66.0547 230.382 66.0547C230.176 66.084 229.986 66.084 229.796 66.084H229.224C228.873 66.084 228.507 66.0693 228.111 66.0254C227.701 65.9961 227.364 65.9521 227.086 65.9082C226.968 65.8936 226.895 65.8203 226.866 65.6885C226.822 65.5566 226.807 65.3223 226.793 64.9707L226.705 62.8467C223.936 62.5684 221.841 61.7334 220.421 60.3418C219 58.9648 218.297 57.1777 218.297 55.0098ZM224.478 55.3467C224.478 56.2109 224.669 56.9727 225.049 57.6172C225.43 58.2617 225.928 58.7598 226.573 59.0967C226.529 58.0127 226.5 56.9434 226.5 55.8594C226.485 54.7754 226.47 53.6621 226.456 52.5195C225.709 52.6953 225.196 53.0176 224.903 53.4717C224.61 53.9258 224.464 54.5557 224.478 55.3467ZM230.718 58.7891C231.231 58.4082 231.627 57.9248 231.92 57.3389C232.198 56.7529 232.344 56.0938 232.344 55.3467C232.33 53.9404 231.817 53.0322 230.777 52.6221C230.777 53.4131 230.762 54.292 230.762 55.2441C230.748 56.2109 230.733 57.3242 230.718 58.584V58.7891Z" stroke="#89AA4F" stroke-width="0.5"/>
<path d="M242.723 50.5127C242.723 50.3369 242.826 50.1904 243.046 50.0586C243.265 49.9268 243.675 49.8096 244.261 49.707C244.847 49.6191 245.653 49.5459 246.664 49.4873C247.66 49.4287 248.964 49.3994 250.575 49.3994H253.944C254.237 49.4141 254.383 49.5605 254.383 49.8535C254.383 50.7324 254.34 51.5967 254.281 52.4316C254.208 53.2812 254.12 54.0283 254.017 54.6875C253.915 55.3467 253.812 55.874 253.71 56.2695C253.592 56.6797 253.49 56.8848 253.402 56.8701C253.299 56.8701 253.168 56.8701 252.992 56.8555C252.816 56.8555 252.596 56.8408 252.318 56.8115C252.025 56.7969 251.688 56.7822 251.293 56.7676C250.883 56.7676 250.399 56.7529 249.828 56.7529C249.799 56.9141 249.784 57.1191 249.799 57.3828V58.0127C250.37 57.998 250.839 57.9834 251.219 57.9541C251.586 57.9395 251.893 57.9248 252.128 57.8955C252.362 57.8809 252.567 57.8662 252.714 57.8516C252.86 57.8516 253.036 57.8369 253.212 57.8369C253.622 57.8516 253.841 58.0566 253.841 58.4668C253.798 58.7744 253.724 59.126 253.607 59.5215C253.49 59.9316 253.373 60.21 253.285 60.3564C253.08 60.6201 252.303 60.752 250.941 60.752H249.711C249.681 60.9277 249.667 61.1475 249.667 61.3818C249.652 61.6162 249.652 61.8506 249.652 62.0703C249.93 62.1143 250.194 62.1289 250.443 62.1289H251.205C251.527 62.1289 251.835 62.1143 252.142 62.085C252.45 62.0557 252.801 62.041 253.182 62.041C253.373 62.041 253.49 62.0996 253.549 62.2168C253.607 62.334 253.636 62.4805 253.636 62.6416C253.622 63.1982 253.622 63.6816 253.607 64.0918C253.578 64.502 253.534 64.9121 253.49 65.3076C253.461 65.3955 253.373 65.4688 253.226 65.542C253.08 65.6299 252.801 65.7031 252.435 65.7617C252.04 65.8203 251.527 65.8643 250.883 65.8936C250.238 65.9229 249.403 65.9375 248.392 65.9375C247.455 65.9375 246.678 65.9375 246.092 65.9229C245.507 65.9229 245.038 65.8936 244.701 65.835C244.349 65.791 244.1 65.7031 243.954 65.5859C243.807 65.4688 243.719 65.293 243.705 65.0586C243.617 64.4873 243.544 63.7402 243.47 62.832C243.383 61.9238 243.309 60.957 243.221 59.9316C243.133 58.9062 243.075 57.8516 243.016 56.7969C242.958 55.7422 242.899 54.7607 242.87 53.8818C242.826 53.0029 242.797 52.2559 242.767 51.6406C242.738 51.0254 242.723 50.6592 242.723 50.5127Z" stroke="#89AA4F" stroke-width="0.5"/>
<path d="M258.185 51.084C258.185 50.6152 258.229 50.2637 258.317 50.0293C258.405 49.7949 258.522 49.6484 258.639 49.5605C258.991 49.2822 259.562 49.0771 260.353 48.96C261.13 48.8428 262.17 48.7695 263.473 48.7695C264.587 48.7695 265.656 48.916 266.681 49.209C267.692 49.5166 268.586 49.9561 269.362 50.5713C270.124 51.1865 270.739 51.9482 271.208 52.8711C271.662 53.8086 271.896 54.9072 271.896 56.1816C271.882 57.0605 271.75 57.8809 271.486 58.6279C271.222 59.3896 270.724 60.0195 270.036 60.5322C270.505 60.7666 270.9 61.0742 271.222 61.4697C271.53 61.8799 271.691 62.4072 271.691 63.0518C271.691 63.7842 271.501 64.3408 271.149 64.7363C270.783 65.1465 270.329 65.4395 269.801 65.6445C269.259 65.8496 268.674 65.9668 268.044 65.9961C267.414 66.04 266.828 66.0547 266.286 66.0547C265.744 66.084 265.173 66.0986 264.557 66.0986C263.942 66.1133 263.371 66.1133 262.814 66.1133H261.759C261.393 66.1133 260.968 66.0986 260.47 66.0547C259.914 66.0254 259.548 65.8789 259.372 65.6152C259.196 65.3516 259.108 64.9707 259.093 64.458C259.093 63.8135 259.064 63.0811 259.006 62.2461C258.947 61.4111 258.888 60.5322 258.83 59.6094C258.757 58.6865 258.683 57.7637 258.61 56.8408C258.522 55.9326 258.449 55.083 258.39 54.292C258.332 53.5156 258.273 52.8418 258.244 52.2705C258.2 51.7139 258.185 51.3184 258.185 51.084ZM265.085 63.623C265.114 63.6523 265.216 63.6523 265.392 63.6523C265.509 63.6523 265.627 63.6377 265.773 63.6084C265.92 63.5791 266.051 63.5352 266.198 63.4473C266.33 63.374 266.447 63.2715 266.535 63.1396C266.623 63.0078 266.681 62.8467 266.681 62.6416C266.681 62.4512 266.623 62.29 266.52 62.1582C266.418 62.041 266.3 61.9385 266.154 61.8799C266.008 61.8213 265.832 61.7773 265.641 61.748C265.451 61.7188 265.275 61.7041 265.114 61.7041C265.114 61.8799 265.099 62.0703 265.099 62.2461C265.085 62.4219 265.085 62.6123 265.085 62.7881V63.623ZM265.143 60.2979C265.583 60.2979 265.993 60.1953 266.388 59.9756C266.769 59.7705 266.974 59.375 267.004 58.7891C267.004 58.3496 266.886 57.9834 266.667 57.6758C266.447 57.3682 266.11 57.207 265.656 57.207H265.451C265.363 57.2217 265.29 57.2217 265.246 57.2363C265.202 57.7051 265.173 58.2178 265.158 58.7744C265.143 59.3311 265.143 59.8438 265.143 60.2979Z" stroke="#89AA4F" stroke-width="0.5"/>
<path d="M149.77 49.2236C149.77 49.1357 149.873 49.0479 150.107 48.9893C150.341 48.9307 150.708 48.8721 151.22 48.8428C151.733 48.8135 152.407 48.7988 153.242 48.7988H156.289C156.42 48.7988 156.494 48.8721 156.494 49.0039C156.479 49.165 156.479 49.3262 156.479 49.4873C156.464 49.6631 156.45 49.8096 156.464 49.9414C156.464 50.9668 156.479 51.9775 156.523 53.0029C156.552 54.0283 156.611 55.0098 156.699 55.9766C157.153 54.8926 157.622 53.7646 158.09 52.5928C158.559 51.4209 158.999 50.2051 159.409 48.9453C159.409 48.8574 159.467 48.7988 159.614 48.7988C159.907 48.8135 160.361 48.8281 160.976 48.8574C161.591 48.9014 162.192 48.96 162.807 49.0186C163.422 49.0771 163.95 49.1504 164.404 49.2236C164.843 49.3115 165.078 49.3848 165.078 49.458C165.078 49.5752 165.048 49.7217 164.99 49.9121C164.711 50.6738 164.462 51.377 164.199 52.0215C163.935 52.666 163.657 53.2666 163.364 53.8232C163.056 54.3945 162.734 54.9512 162.382 55.4932C162.031 56.0352 161.635 56.5771 161.196 57.1338C161.855 58.3789 162.47 59.6533 163.042 60.957C163.613 62.2607 164.126 63.6523 164.565 65.1172C164.565 65.293 164.345 65.4395 163.92 65.5566C163.481 65.6738 162.968 65.7617 162.382 65.8203C161.796 65.8936 161.181 65.9375 160.566 65.9668C159.951 65.9961 159.438 65.9961 159.043 65.9961C158.955 65.9961 158.881 65.9521 158.837 65.8643C158.574 64.9268 158.266 63.9893 157.915 63.0518C157.563 62.1143 157.168 61.2207 156.757 60.3564C156.728 60.6787 156.713 60.9863 156.728 61.2793V62.1729C156.728 62.6562 156.728 63.1396 156.757 63.6084C156.772 64.0771 156.787 64.5605 156.787 65.0293C156.787 65.1318 156.743 65.2051 156.684 65.2637C156.611 65.3223 156.479 65.3516 156.274 65.3809C156.069 65.4102 155.791 65.4395 155.41 65.4395C155.029 65.4541 154.531 65.4541 153.916 65.4541C153.271 65.4541 152.714 65.4688 152.26 65.4688C151.792 65.4834 151.411 65.4688 151.088 65.4248C150.971 65.4248 150.869 65.3809 150.795 65.2637C150.708 65.1465 150.649 64.9414 150.59 64.6338C150.532 64.3262 150.503 63.8867 150.473 63.3301C150.444 62.7734 150.4 62.0264 150.341 61.1035C150.18 58.3643 150.048 56.0498 149.931 54.1455C149.814 52.2412 149.77 50.6006 149.77 49.2236Z" fill="url(#paint5_linear_6_3)" stroke="#89AA4F" stroke-width="0.5"/>
<path d="M51.3414 45.3857C51.3414 45.1953 51.605 45.0342 52.1324 44.917C52.6597 44.7998 53.3189 44.6973 54.1099 44.6387C54.9009 44.5801 55.7652 44.5361 56.7173 44.5068C57.6695 44.4922 58.563 44.4775 59.4126 44.4775H61.4927C62.2837 44.4922 63.0894 44.4922 63.9244 44.4922C64.7447 44.5068 65.565 44.5215 66.3853 44.5361C67.191 44.5654 67.9087 44.5947 68.5533 44.6387C69.1978 44.6826 69.7105 44.7412 70.106 44.7998C70.4869 44.873 70.6919 44.9609 70.6919 45.0488V49.5752C70.6919 50.9521 70.6773 52.2559 70.6626 53.457C70.6333 54.6729 70.604 55.874 70.5455 57.0752C70.4869 58.2764 70.3843 59.5361 70.2671 60.8398C70.1499 62.1582 69.9888 63.5938 69.7984 65.1758C69.7691 65.3223 69.6812 65.3955 69.5201 65.3955C69.1099 65.3955 68.6412 65.3955 68.0845 65.3809C67.5132 65.3809 66.9419 65.3662 66.3267 65.3516C65.7115 65.3516 65.0962 65.3223 64.4664 65.293C63.8365 65.2637 63.2652 65.2197 62.7671 65.1758C62.606 65.1758 62.5328 65.0879 62.5328 64.9121C62.5328 64.9561 62.5181 64.707 62.4888 64.1797C62.4449 63.6523 62.3368 62.3267 62.2928 61.3306C62.2342 60.3492 62.2691 59.7119 62.2398 58.2764C62.2105 56.8408 62.1812 55.2441 62.1958 53.457H61.0826C60.7457 53.4717 60.4087 53.4717 60.0718 53.4863C59.9986 55.2881 59.94 57.1045 59.8667 58.9209C59.7789 60.7373 59.6324 62.6855 59.4126 64.7363C59.3687 64.8975 59.1636 65 58.8121 65.0293C58.4458 65.0732 58.065 65.0879 57.6695 65.0879C56.3218 65.0879 55.2818 65.0879 54.5201 65.0732C53.7583 65.0732 53.1871 65.0439 52.8062 65.0146C52.4253 64.9854 52.191 64.9561 52.1031 64.8975C52.0152 64.8535 51.9712 64.7949 51.9712 64.707L51.5171 53.1201C51.4292 51.1865 51.3853 49.5898 51.3707 48.3594C51.3414 47.1289 51.3414 46.1475 51.3414 45.3857Z" fill="url(#paint6_linear_6_3)" stroke="url(#paint7_linear_6_3)" stroke-opacity="0.2" stroke-width="0.5"/>
<path d="M73.8873 56.5771C73.8873 55.4199 74.0484 54.3506 74.3853 53.3545C74.7076 52.3584 75.191 51.5088 75.8208 50.791C76.4507 50.0732 77.2124 49.502 78.1207 49.0918C79.0142 48.6816 80.0249 48.4766 81.1529 48.4766C82.2955 48.4912 83.2915 48.6963 84.1705 49.1064C85.0347 49.5312 85.7671 50.1025 86.3531 50.8203C86.939 51.5381 87.3931 52.373 87.6861 53.3398C87.979 54.3066 88.1402 55.3174 88.1402 56.3867C88.1255 57.5586 87.979 58.6865 87.6861 59.7852C87.3931 60.8838 86.9537 61.8652 86.3677 62.7148C85.7818 63.5791 85.0494 64.2676 84.1705 64.7949C83.2769 65.3223 82.2515 65.5713 81.0943 65.5713C80.0103 65.5713 79.0142 65.3662 78.1353 64.9414C77.2417 64.5312 76.48 63.9307 75.8501 63.1396C75.2203 62.3633 74.7369 61.4258 74.3999 60.3125C74.0484 59.1992 73.8873 57.9541 73.8873 56.5771ZM79.7466 58.4229C79.7466 59.2139 79.8638 59.8584 80.0982 60.3857C80.3326 60.9131 80.6255 61.1621 80.9771 61.1621C81.358 61.1621 81.6509 60.8984 81.8853 60.3711C82.1197 59.8438 82.2369 59.1846 82.2369 58.4229C82.2369 57.7197 82.1343 57.2363 81.9439 56.9727C81.7535 56.709 81.4605 56.5771 81.065 56.5771C80.5376 56.5918 80.1861 56.7236 80.0103 56.9873C79.8345 57.251 79.7466 57.7344 79.7466 58.4229Z" fill="url(#paint8_linear_6_3)" stroke="#89AA4F" stroke-width="0.5"/>
<g filter="url(#filter0_d_6_3)">
<path fill-rule="evenodd" clip-rule="evenodd" d="M103.863 38.3631C112.095 40.8562 119.767 45.6473 120.845 54.1039L113.901 54.989C113.381 50.9089 109.492 47.382 101.834 45.0625C94.4272 42.8195 84.7807 42.1646 75.6099 42.8847C66.3657 43.6104 58.1889 45.6867 53.532 48.4613C51.171 49.8679 50.286 51.1112 50.0635 51.9033C49.9202 52.4133 49.8539 53.4431 51.4149 55.2378C55.4446 58.5961 61.6077 61.2913 69.7004 63.3256C77.8613 65.3771 87.6846 66.6845 98.6361 67.4371C120.542 68.9425 146.548 68.2039 172.001 66.9952C180.128 66.6092 188.209 66.1745 196.074 65.7515C212.74 64.855 228.438 64.0107 241.561 63.7918C251.224 63.6306 259.663 63.8032 266.18 64.5713C269.436 64.9549 272.336 65.5005 274.723 66.2811C277.031 67.0359 279.291 68.1459 280.787 69.9456L275.404 74.42C275.087 74.1221 274.397 73.5393 272.548 72.9344C270.777 72.3554 268.384 71.8794 265.361 71.5232C259.322 70.8115 251.262 70.6309 241.678 70.7908C228.686 71.0075 213.209 71.8401 196.625 72.7324C188.729 73.1572 180.582 73.5955 172.333 73.9873C146.86 75.197 120.502 75.9562 98.1562 74.4206C86.982 73.6527 76.7079 72.305 67.9938 70.1144C59.333 67.9373 51.9066 64.854 46.6956 60.4148L46.5209 60.2659L46.3671 60.0956C43.6576 57.0937 42.3122 53.6126 43.3244 50.0099C44.2617 46.6737 46.9759 44.2191 49.9491 42.4477C55.9606 38.8662 65.3923 36.6653 75.062 35.9061C84.8053 35.1412 95.3783 35.7935 103.863 38.3631Z" fill="url(#paint9_linear_6_3)"/>
<path fill-rule="evenodd" clip-rule="evenodd" d="M103.398 39.1734C111.558 41.6363 117.918 45.9316 119.61 52.4975L118.642 52.7471C117.084 46.7038 111.17 42.5635 103.109 40.1308C95.0746 37.7058 85.057 37.0284 75.5833 37.8002C66.1026 38.5726 57.2337 40.7908 51.4773 44.1041C48.5977 45.7616 46.548 47.6638 45.5563 49.7459C44.5789 51.798 44.6001 54.0843 45.9829 56.6184C46.7297 57.9871 47.8237 59.1048 49.1039 60.0721C54.1146 63.8583 61.1925 66.664 69.8108 68.6924C78.4232 70.7193 88.538 71.962 99.5943 72.6446C121.708 74.0099 147.534 73.1323 172.539 71.8389C179.891 71.4585 187.174 71.0421 194.27 70.6365C211.292 69.6633 227.237 68.7516 240.49 68.5466C249.879 68.4014 257.942 68.6101 264.095 69.4075C267.171 69.8061 269.788 70.3541 271.862 71.0871C273.927 71.8169 275.515 72.3406 276.456 73.5442L275.623 74.2373C274.853 73.2525 273.52 72.7335 271.529 72.0299C269.547 71.3296 267.007 70.7932 263.967 70.3992C257.887 69.6113 249.882 69.4014 240.506 69.5465C227.275 69.7511 211.363 70.6609 194.352 71.6335C187.251 72.0394 179.959 72.4564 172.59 72.8375C147.583 74.1311 121.707 75.0118 99.5326 73.6427C88.4448 72.9581 78.2689 71.7104 69.5817 69.6658C60.9004 67.6226 53.6698 64.7756 48.501 60.8699C47.1466 59.8465 45.9399 58.6275 45.105 57.0974C43.5845 54.3107 43.5246 51.6859 44.6534 49.3159C45.768 46.9759 48.0118 44.945 50.9784 43.2375C56.9143 39.8209 65.9481 37.5819 75.5021 36.8035C85.063 36.0246 95.2123 36.7028 103.398 39.1734ZM102.993 41.2343C110.979 43.653 117.03 47.9023 117.869 54.4832L116.877 54.6097C116.118 48.6539 110.607 44.5852 102.703 42.1913C94.8348 39.8084 84.7912 39.1546 75.3751 39.8939C65.9485 40.634 57.2339 42.7636 51.9965 45.884C49.3731 47.447 47.7042 49.2094 47.1753 51.0918C46.6589 52.9299 47.1924 55.0297 49.3146 57.3911C53.8477 61.2424 60.5789 64.126 68.969 66.2351C77.367 68.3462 87.3835 69.6709 98.4304 70.43C120.525 71.9484 146.682 71.201 172.143 69.9918C180.323 69.6033 188.432 69.1671 196.31 68.7433C212.941 67.8486 228.544 67.0093 241.611 66.7913C251.24 66.6307 259.517 66.8068 265.829 67.5507C268.985 67.9226 271.668 68.4383 273.791 69.1325C275.902 69.8231 277.521 70.7093 278.48 71.8632L277.711 72.5024C276.931 71.5638 275.526 70.7521 273.48 70.083C271.445 69.4176 268.835 68.9118 265.712 68.5438C259.468 67.8079 251.246 67.6308 241.628 67.7912C228.58 68.0089 213.008 68.8465 196.389 69.7406C188.506 70.1646 180.388 70.6014 172.191 70.9907C146.726 72.2 120.519 72.9503 98.3619 71.4277C87.2831 70.6664 77.2022 69.3359 68.7252 67.2049C60.2558 65.0759 53.3438 62.1373 48.6411 58.1311L48.6161 58.1098L48.5941 58.0855C46.3114 55.5565 45.5709 53.1053 46.2126 50.8214C46.8435 48.5755 48.7738 46.64 51.4846 45.025C56.9156 41.7893 65.8094 39.6418 75.2968 38.8969C84.7947 38.1512 94.9707 38.8047 102.993 41.2343ZM104.958 44.1287C111.56 46.658 116.287 50.7104 116.55 56.6433L115.551 56.6876C115.315 51.3665 111.084 47.5463 104.6 45.0626C98.1366 42.5867 89.5986 41.5128 81.1298 41.6047C72.6627 41.6965 64.3187 42.9528 58.2519 45.0985C55.2149 46.1726 52.7854 47.4568 51.1937 48.8995C49.6093 50.3357 48.9012 51.8801 49.1528 53.5217C49.3392 54.7379 50.0135 55.7573 50.9683 56.639C51.9265 57.5238 53.1419 58.2461 54.3558 58.8646C66.6581 65.1323 86.0313 67.9809 108.465 68.9541C130.878 69.9263 156.263 69.0249 180.541 67.8424C186.485 67.5529 192.363 67.2465 198.115 66.9467C215.845 66.0224 232.374 65.1608 245.923 65.05C254.894 64.9766 262.582 65.2319 268.46 66.0207C271.399 66.4151 273.903 66.945 275.896 67.6416C277.88 68.3352 279.409 69.2117 280.342 70.3336L279.573 70.9728C278.809 70.0543 277.479 69.2544 275.566 68.5856C273.661 67.9199 271.231 67.4015 268.327 67.0118C262.521 66.2326 254.889 65.9766 245.931 66.0499C232.406 66.1606 215.91 67.0205 198.186 67.9444C192.43 68.2444 186.545 68.5512 180.59 68.8412C156.31 70.0238 130.884 70.9275 108.422 69.9531C85.9795 68.9796 66.4132 66.1298 53.9018 59.7556C52.6592 59.1225 51.3483 58.3511 50.2899 57.3737C49.2282 56.3933 48.3956 55.1821 48.1644 53.6731C47.8452 51.5906 48.7838 49.7343 50.5221 48.1586C52.2532 46.5896 54.8224 45.2507 57.9184 44.1557C64.1177 41.9632 72.5773 40.6973 81.1189 40.6047C89.6588 40.5121 98.3345 41.5917 104.958 44.1287Z" fill="url(#paint10_linear_6_3)"/>
</g>
<path d="M90.4811 59.2773C90.4811 59.2539 90.5514 59.2188 90.6921 59.1836C90.8327 59.1484 91.0319 59.125 91.278 59.1016C91.5241 59.0898 91.8171 59.0781 92.1452 59.0547C92.4733 59.043 92.8132 59.0312 93.1647 59.0312C93.3874 58.8438 93.5632 58.5039 93.7038 58.0117C93.8444 57.5312 93.9147 56.957 93.9147 56.2773C93.9147 55.2695 93.903 54.4023 93.8913 53.6523C93.8678 52.9023 93.8561 52.2461 93.8327 51.6719C93.7975 51.0977 93.7858 50.5703 93.7624 50.0898C93.7389 49.6094 93.7272 49.1055 93.7389 48.5898C93.7389 48.4727 93.7507 48.3672 93.7975 48.2969C93.8444 48.2266 93.9382 48.1797 94.0788 48.1797C94.9225 48.1797 95.8366 48.1797 96.821 48.1562C97.6413 48.1445 98.5905 48.1328 99.6452 48.1211C100.7 48.1211 101.801 48.1094 102.962 48.1094C103.489 48.1094 104.016 48.1211 104.532 48.1445C105.048 48.168 105.54 48.2148 106.008 48.2852C106.184 48.3086 106.266 48.3789 106.266 48.4961C106.231 50.2305 106.184 51.9648 106.137 53.6992C106.079 55.4336 106.044 57.2383 106.032 59.1016C106.477 59.1367 106.7 59.1602 106.7 59.1719V60.5195C106.7 60.9414 106.688 61.3164 106.676 61.668C106.653 62.0195 106.63 62.3828 106.606 62.7344C106.571 63.0859 106.512 63.4609 106.442 63.8359C106.36 64.2227 106.255 64.6445 106.149 65.1016C106.114 65.1484 106.055 65.1719 105.985 65.1719C105.071 65.1836 104.333 65.1719 103.782 65.1484C103.231 65.1367 102.798 65.125 102.493 65.0898C102.176 65.0664 101.965 65.043 101.86 65.0078C101.755 64.9844 101.708 64.9375 101.708 64.8906C101.708 64.9141 101.684 64.6328 101.637 64.0703C101.59 63.5078 101.567 62.6992 101.567 61.6445H95.7546C95.7194 62.1836 95.6725 62.7227 95.6374 63.2617C95.5788 63.8008 95.4967 64.375 95.3796 64.9844C95.3444 65.0312 95.2155 65.0664 95.0046 65.0664C94.7819 65.0781 94.5475 65.0781 94.3249 65.0781H92.403C91.9342 65.0898 91.5827 65.0781 91.36 65.0547C91.1374 65.043 90.9967 65.0312 90.9499 65.0195C90.8913 65.0195 90.8678 64.9961 90.8678 64.9609L90.5983 61.5508C90.5514 60.9883 90.5163 60.5312 90.5046 60.1562C90.4811 59.793 90.4811 59.5 90.4811 59.2773ZM98.2272 59.0078H99.6335C100.102 59.0195 100.606 59.0195 101.133 59.0312C101.063 58.1641 101.016 57.2852 100.981 56.3711C100.934 55.457 100.899 54.543 100.876 53.6289C100.712 53.6172 100.559 53.6055 100.419 53.5938C100.266 53.5938 100.114 53.582 99.9616 53.582C99.8092 53.582 99.6686 53.5938 99.5163 53.5938C99.3522 53.6055 99.1999 53.6172 99.0475 53.6289C98.9655 54.9414 98.8483 56.0547 98.7077 56.957C98.5671 57.8711 98.403 58.5508 98.2272 59.0078Z" fill="url(#paint11_linear_6_3)" stroke="#89AA4F" stroke-width="0.5"/>
<path d="M132.858 49.7949C132.858 49.6045 133.019 49.4141 133.341 49.2383C133.664 49.0625 134.088 48.916 134.63 48.7842C135.158 48.667 135.788 48.5645 136.505 48.4912C137.209 48.418 137.956 48.374 138.717 48.374C140.109 48.374 141.369 48.5791 142.497 48.9893C143.625 49.3994 144.591 49.9707 145.397 50.7031C146.188 51.4355 146.803 52.3145 147.228 53.3252C147.638 54.3359 147.858 55.4346 147.858 56.6357C147.843 57.7197 147.653 58.6572 147.272 59.4189C146.877 60.1807 146.349 60.8252 145.69 61.3232C145.031 61.8359 144.269 62.2314 143.39 62.5098C142.511 62.8027 141.574 62.9932 140.607 63.0811V64.7656C140.607 64.9268 140.519 65.0439 140.343 65.1318C140.168 65.2197 139.948 65.293 139.669 65.3516C139.391 65.4102 139.084 65.4395 138.732 65.4395C138.38 65.4541 138.029 65.4541 137.692 65.4541H135.568C135.334 65.4541 135.143 65.4541 134.982 65.4395C134.821 65.4395 134.674 65.4248 134.543 65.3955C134.455 65.3076 134.352 64.9414 134.235 64.2969C134.118 63.667 134.001 62.876 133.883 61.9238C133.766 60.9863 133.634 59.9316 133.517 58.7744C133.4 57.6318 133.283 56.4893 133.195 55.376C133.092 54.2627 133.004 53.208 132.946 52.2266C132.887 51.2451 132.858 50.4395 132.858 49.7949ZM140.607 60.166C141.222 60.1074 141.706 59.9023 142.072 59.5508C142.423 59.1992 142.614 58.7744 142.614 58.2471C142.614 57.749 142.438 57.3975 142.086 57.1631C141.72 56.9287 141.354 56.8115 140.959 56.8115H140.768C140.695 56.8262 140.636 56.8262 140.607 56.8408V60.166Z" fill="url(#paint12_linear_6_3)" stroke="#89AA4F" stroke-width="0.5"/>
<path d="M167.078 58.8184C167.078 57.7344 167.078 56.709 167.107 55.7422C167.122 54.7754 167.136 53.8232 167.136 52.8564V51.0693C167.136 50.6299 167.136 50.2783 167.151 50.0146C167.151 49.7656 167.166 49.5898 167.18 49.4727C167.18 49.3701 167.195 49.2822 167.224 49.1943C167.239 49.1357 167.268 49.0918 167.312 49.0625C167.341 49.0332 167.444 49.0039 167.59 48.9746C167.737 48.96 167.957 48.9453 168.235 48.9307C168.513 48.9307 168.909 48.916 169.436 48.916C170.095 48.9307 170.505 48.9307 170.667 48.9307C170.828 48.9453 170.945 48.9746 171.003 49.0039C171.062 49.0479 171.091 49.1211 171.121 49.2236C171.135 49.3262 171.15 49.4873 171.15 49.707C171.15 50.5127 171.135 51.333 171.121 52.168C171.091 53.0029 171.091 53.8232 171.091 54.6143C171.326 54.2041 171.604 53.75 171.897 53.2812C172.19 52.8125 172.512 52.3438 172.864 51.875C173.201 51.4062 173.552 50.9521 173.933 50.498C174.299 50.0586 174.68 49.6338 175.076 49.2529C175.193 49.1211 175.339 49.0332 175.53 48.9746C175.706 48.916 175.999 48.8867 176.409 48.8867C176.643 48.9014 176.98 48.9014 177.405 48.9014C177.83 48.916 178.372 48.9453 179.045 48.9746C179.368 49.0039 179.573 49.0625 179.69 49.1504C179.793 49.2383 179.851 49.4287 179.851 49.707C179.851 51.0107 179.836 52.4023 179.836 53.8818C179.822 55.3613 179.807 56.7676 179.807 58.1152C179.793 59.4629 179.778 60.6787 179.778 61.7334C179.763 62.7881 179.763 63.5352 179.763 63.9746C179.763 64.2676 179.749 64.5312 179.749 64.7949C179.734 65.0586 179.675 65.2197 179.587 65.293C179.485 65.4102 179.309 65.498 179.075 65.5273C178.826 65.5566 178.342 65.5713 177.61 65.5713C177.2 65.5713 176.892 65.5713 176.672 65.542C176.453 65.5273 176.292 65.4834 176.174 65.4248C176.057 65.3662 175.999 65.293 175.969 65.1904C175.94 65.0879 175.925 64.9561 175.925 64.7949C175.925 64.209 175.94 63.5645 175.984 62.8613C176.013 62.1729 176.057 61.2354 176.101 60.0488C175.515 60.7812 174.944 61.5283 174.358 62.3193C173.772 63.1104 173.289 63.8281 172.893 64.458C172.717 64.751 172.556 64.9707 172.424 65.1172C172.293 65.2637 172.117 65.3809 171.897 65.4541C171.677 65.542 171.384 65.5859 171.018 65.5859C170.637 65.6006 170.154 65.6006 169.539 65.6006C169.07 65.6006 168.718 65.6006 168.455 65.5859C168.191 65.5859 167.986 65.5713 167.839 65.542C167.693 65.5273 167.59 65.5127 167.532 65.4834C167.473 65.4688 167.429 65.4541 167.4 65.4248C167.312 65.3662 167.268 65.2783 167.253 65.1611C167.224 65.0439 167.195 64.7949 167.166 64.4287C167.122 64.1943 167.092 63.5791 167.092 62.6123C167.078 61.6455 167.063 60.3857 167.078 58.8184Z" fill="url(#paint13_linear_6_3)" stroke="#89AA4F" stroke-width="0.5"/>
<path d="M51.3414 45.3857C51.3414 45.1953 51.605 45.0342 52.1324 44.917C52.6597 44.7998 53.3189 44.6973 54.1099 44.6387C54.9009 44.5801 55.7652 44.5361 56.7173 44.5068C57.6695 44.4922 58.563 44.4775 59.4126 44.4775H61.4927C62.2837 44.4922 63.0894 44.4922 63.9244 44.4922C64.7447 44.5068 65.565 44.5215 66.3853 44.5361C67.191 44.5654 67.9087 44.5947 68.5533 44.6387C69.1978 44.6826 69.7105 44.7412 70.106 44.7998C70.4869 44.873 70.6919 44.9609 70.6919 45.0488V49.5752C70.6919 50.9521 70.6773 52.2559 70.6626 53.457C70.6333 54.6729 70.604 55.874 70.5455 57.0752C70.4869 58.2764 70.3843 59.5361 70.2671 60.8398C70.1499 62.1582 69.9888 63.5938 69.7984 65.1758C69.7691 65.3223 69.6812 65.3955 69.5201 65.3955C69.1099 65.3955 68.6412 65.3955 68.0845 65.3809C67.5132 65.3809 66.9419 65.3662 66.3267 65.3516C65.7115 65.3516 65.0962 65.3223 64.4664 65.293C63.8365 65.2637 63.2652 65.2197 62.7671 65.1758C62.606 65.1758 62.5328 65.0879 62.5328 64.9121C62.5328 64.9561 62.5181 64.707 62.4888 64.1797C62.4449 63.6523 62.3368 62.3267 62.2928 61.3306C62.2342 60.3492 62.2691 59.7119 62.2398 58.2764C62.2105 56.8408 62.1812 55.2441 62.1958 53.457H61.0826C60.7457 53.4717 60.4087 53.4717 60.0718 53.4863C59.9986 55.2881 59.94 57.1045 59.8667 58.9209C59.7789 60.7373 59.8095 60.1391 59.8095 60.1391L58.2038 59.3817L56.3557 58.4728C56.3557 58.4728 55.0408 57.7576 55.0408 57.6697L51.6208 55.4036L51.5171 53.1201C51.4292 51.1865 51.3853 49.5898 51.3707 48.3594C51.3414 47.1289 51.3414 46.1475 51.3414 45.3857Z" fill="url(#paint14_linear_6_3)"/>
<path d="M119.578 45.0747C119.777 44.7864 120.202 44.7864 120.401 45.0747L124.125 50.4771C124.196 50.5801 124.303 50.6527 124.425 50.6807L131.142 52.2199C131.516 52.3056 131.658 52.7627 131.399 53.0453L127.006 57.8341C126.913 57.9358 126.866 58.0715 126.876 58.2091L127.342 64.4771C127.369 64.8393 127.013 65.1085 126.672 64.9838L120.161 62.6027C120.05 62.5621 119.929 62.5621 119.818 62.6027L113.307 64.9838C112.966 65.1085 112.61 64.8393 112.637 64.4771L113.103 58.2091C113.114 58.0715 113.066 57.9358 112.973 57.8341L108.581 53.0453C108.321 52.7627 108.464 52.3056 108.837 52.2199L115.554 50.6807C115.676 50.6527 115.783 50.5801 115.854 50.4771L119.578 45.0747Z" fill="url(#paint15_linear_6_3)"/>
<path fill-rule="evenodd" clip-rule="evenodd" d="M119.372 44.9329C119.67 44.5004 120.309 44.5004 120.607 44.9329L124.331 50.3352C124.367 50.3867 124.42 50.423 124.481 50.437L131.198 51.9762C131.758 52.1047 131.972 52.7904 131.583 53.2143L127.19 58.0031C127.144 58.0539 127.12 58.1218 127.125 58.1906L127.592 64.4585C127.632 65.0019 127.098 65.4057 126.586 65.2185L120.075 62.8374C120.02 62.8172 119.959 62.8172 119.904 62.8374L113.393 65.2185C112.881 65.4057 112.347 65.0019 112.388 64.4585L112.854 58.1906C112.859 58.1218 112.836 58.0539 112.789 58.0031L108.396 53.2143C108.008 52.7904 108.221 52.1047 108.782 51.9762L115.498 50.437C115.559 50.423 115.613 50.3867 115.648 50.3352L119.372 44.9329ZM120.195 45.2166C120.096 45.0725 119.883 45.0725 119.784 45.2166L116.06 50.619C115.953 50.7735 115.793 50.8825 115.61 50.9244L108.893 52.4636C108.706 52.5064 108.635 52.735 108.765 52.8763L113.157 57.6651C113.297 57.8176 113.368 58.0213 113.353 58.2277L112.886 64.4956C112.873 64.6768 113.051 64.8114 113.221 64.749L119.732 62.3679C119.898 62.307 120.081 62.307 120.247 62.3679L126.758 64.749C126.928 64.8114 127.106 64.6768 127.093 64.4956L126.627 58.2277C126.611 58.0213 126.682 57.8176 126.822 57.6651L131.214 52.8763C131.344 52.735 131.273 52.5064 131.086 52.4636L124.369 50.9244C124.186 50.8825 124.026 50.7735 123.919 50.619L120.195 45.2166Z" fill="url(#paint16_linear_6_3)" fill-opacity="0.2"/>
<path d="M119.367 47.7105C119.566 47.4222 119.992 47.4222 120.191 47.7105L122.94 51.6989C123.011 51.8019 123.118 51.8746 123.24 51.9025L128.179 53.0344C128.553 53.12 128.695 53.5772 128.436 53.8597L125.218 57.3674C125.125 57.4691 125.078 57.6048 125.088 57.7425L125.431 62.3447C125.458 62.707 125.102 62.9762 124.76 62.8514L119.951 61.0924C119.84 61.0518 119.718 61.0518 119.607 61.0924L114.798 62.8514C114.456 62.9762 114.1 62.707 114.127 62.3447L114.47 57.7425C114.48 57.6048 114.433 57.4691 114.339 57.3674L111.122 53.8597C110.863 53.5772 111.005 53.12 111.379 53.0344L116.318 51.9025C116.44 51.8746 116.547 51.8019 116.618 51.6989L119.367 47.7105Z" fill="url(#paint17_radial_6_3)"/>
<path fill-rule="evenodd" clip-rule="evenodd" d="M119.161 47.5686C119.46 47.1361 120.098 47.1361 120.396 47.5686L123.146 51.557C123.181 51.6085 123.235 51.6449 123.296 51.6588L128.235 52.7907C128.795 52.9192 129.009 53.6049 128.62 54.0287L125.403 57.5364C125.356 57.5872 125.332 57.6551 125.338 57.7239L125.68 62.3262C125.72 62.8696 125.186 63.2734 124.674 63.0862L119.865 61.3272C119.809 61.3069 119.748 61.3069 119.693 61.3272L114.883 63.0862C114.372 63.2734 113.837 62.8696 113.878 62.3262L114.22 57.7239C114.225 57.6551 114.202 57.5872 114.155 57.5364L110.938 54.0287C110.549 53.6049 110.762 52.9192 111.323 52.7907L116.262 51.6588C116.323 51.6449 116.377 51.6085 116.412 51.557L119.161 47.5686ZM119.985 47.8523C119.885 47.7082 119.672 47.7082 119.573 47.8523L116.824 51.8408C116.717 51.9953 116.557 52.1043 116.374 52.1462L111.435 53.2781C111.248 53.3209 111.177 53.5495 111.306 53.6908L114.524 57.1984C114.664 57.3509 114.734 57.5546 114.719 57.761L114.376 62.3633C114.363 62.5444 114.541 62.679 114.712 62.6166L119.521 60.8576C119.688 60.7968 119.87 60.7968 120.037 60.8576L124.846 62.6166C125.017 62.679 125.195 62.5444 125.181 62.3633L124.839 57.761C124.824 57.5546 124.894 57.3509 125.034 57.1984L128.252 53.6908C128.381 53.5495 128.31 53.3209 128.123 53.2781L123.184 52.1462C123.001 52.1043 122.841 51.9953 122.734 51.8408L119.985 47.8523Z" fill="url(#paint18_linear_6_3)" fill-opacity="0.2"/>
<path d="M119.367 51.5205C119.566 51.2322 119.992 51.2322 120.191 51.5205L121.531 53.4651C121.602 53.5681 121.709 53.6408 121.831 53.6687L124.201 54.2118C124.574 54.2974 124.717 54.7545 124.457 55.0371L122.939 56.6927C122.846 56.7944 122.798 56.9302 122.809 57.0678L122.972 59.2624C122.999 59.6246 122.643 59.8938 122.302 59.7691L119.951 58.9093C119.84 58.8687 119.718 58.8687 119.607 58.9093L117.256 59.7691C116.915 59.8938 116.559 59.6246 116.586 59.2624L116.749 57.0678C116.759 56.9302 116.712 56.7944 116.619 56.6927L115.1 55.0371C114.841 54.7545 114.983 54.2974 115.357 54.2118L117.727 53.6687C117.849 53.6408 117.956 53.5681 118.027 53.4651L119.367 51.5205Z" fill="url(#paint19_radial_6_3)" fill-opacity="0.5"/>
<defs>
<filter id="filter0_d_6_3" x="42.1879" y="35.6057" width="239.399" height="41.4742" filterUnits="userSpaceOnUse" color-interpolation-filters="sRGB">
<feFlood flood-opacity="0" result="BackgroundImageFix"/>
<feColorMatrix in="SourceAlpha" type="matrix" values="0 0 0 0 0 0 0 0 0 0 0 0 0 0 0 0 0 0 127 0" result="hardAlpha"/>
<feOffset dy="1"/>
<feGaussianBlur stdDeviation="0.4"/>
<feComposite in2="hardAlpha" operator="out"/>
<feColorMatrix type="matrix" values="0 0 0 0 0 0 0 0 0 0 0 0 0 0 0 0 0 0 0.4 0"/>
<feBlend mode="normal" in2="BackgroundImageFix" result="effect1_dropShadow_6_3"/>
<feBlend mode="normal" in="SourceGraphic" in2="effect1_dropShadow_6_3" result="shape"/>
</filter>
<linearGradient id="paint0_linear_6_3" x1="228.353" y1="44.4775" x2="228.353" y2="66.4502" gradientUnits="userSpaceOnUse">
<stop stop-color="#8AA153"/>
<stop offset="1" stop-color="#345D3D"/>
</linearGradient>
<linearGradient id="paint1_linear_6_3" x1="228.353" y1="44.4775" x2="228.353" y2="66.4502" gradientUnits="userSpaceOnUse">
<stop stop-color="#8AA153"/>
<stop offset="1" stop-color="#345D3D"/>
</linearGradient>
<linearGradient id="paint2_linear_6_3" x1="228.353" y1="44.4775" x2="228.353" y2="66.4502" gradientUnits="userSpaceOnUse">
<stop stop-color="#8AA153"/>
<stop offset="1" stop-color="#345D3D"/>
</linearGradient>
<linearGradient id="paint3_linear_6_3" x1="228.353" y1="44.4775" x2="228.353" y2="66.4502" gradientUnits="userSpaceOnUse">
<stop stop-color="#8AA153"/>
<stop offset="1" stop-color="#345D3D"/>
</linearGradient>
<linearGradient id="paint4_linear_6_3" x1="228.353" y1="44.4775" x2="228.353" y2="66.4502" gradientUnits="userSpaceOnUse">
<stop stop-color="#8AA153"/>
<stop offset="1" stop-color="#345D3D"/>
</linearGradient>
<linearGradient id="paint5_linear_6_3" x1="157.424" y1="48.7988" x2="157.424" y2="65.9961" gradientUnits="userSpaceOnUse">
<stop stop-color="#8AA153"/>
<stop offset="1" stop-color="#345D3D"/>
</linearGradient>
<linearGradient id="paint6_linear_6_3" x1="61.0166" y1="44.4775" x2="70.6919" y2="69.5576" gradientUnits="userSpaceOnUse">
<stop stop-color="#8AA153"/>
<stop offset="1" stop-color="#345D3D"/>
</linearGradient>
<linearGradient id="paint7_linear_6_3" x1="61.0166" y1="44.4775" x2="61.0166" y2="65.3955" gradientUnits="userSpaceOnUse">
<stop stop-color="#879E52"/>
<stop offset="1" stop-color="#121B0D"/>
</linearGradient>
<linearGradient id="paint8_linear_6_3" x1="81.0137" y1="48.4766" x2="81.0137" y2="65.5713" gradientUnits="userSpaceOnUse">
<stop stop-color="#8AA153"/>
<stop offset="1" stop-color="#345D3D"/>
</linearGradient>
<linearGradient id="paint9_linear_6_3" x1="111.93" y1="51.0273" x2="320.739" y2="129.213" gradientUnits="userSpaceOnUse">
<stop stop-color="#D74910"/>
<stop offset="1" stop-color="#4B1005"/>
</linearGradient>
<linearGradient id="paint10_linear_6_3" x1="48.5968" y1="51.2445" x2="224.367" y2="86.5828" gradientUnits="userSpaceOnUse">
<stop stop-color="#591E01"/>
<stop offset="1" stop-color="#491607"/>
</linearGradient>
<linearGradient id="paint11_linear_6_3" x1="98.5905" y1="48.1094" x2="98.5905" y2="65.1765" gradientUnits="userSpaceOnUse">
<stop stop-color="#8AA153"/>
<stop offset="1" stop-color="#345D3D"/>
</linearGradient>
<linearGradient id="paint12_linear_6_3" x1="140.358" y1="48.374" x2="140.358" y2="65.4541" gradientUnits="userSpaceOnUse">
<stop stop-color="#8AA153"/>
<stop offset="1" stop-color="#345D3D"/>
</linearGradient>
<linearGradient id="paint13_linear_6_3" x1="173.461" y1="48.8867" x2="173.461" y2="65.6006" gradientUnits="userSpaceOnUse">
<stop stop-color="#8AA153"/>
<stop offset="1" stop-color="#345D3D"/>
</linearGradient>
<linearGradient id="paint14_linear_6_3" x1="61.0166" y1="44.4775" x2="70.6919" y2="69.5576" gradientUnits="userSpaceOnUse">
<stop stop-color="#8AA153"/>
<stop offset="1" stop-color="#345D3D"/>
</linearGradient>
<linearGradient id="paint15_linear_6_3" x1="111.641" y1="52.0872" x2="137.58" y2="58.2785" gradientUnits="userSpaceOnUse">
<stop stop-color="#D74911"/>
<stop offset="1" stop-color="#820909"/>
</linearGradient>
<linearGradient id="paint16_linear_6_3" x1="119.99" y1="44.4775" x2="119.99" y2="67.443" gradientUnits="userSpaceOnUse">
<stop stop-color="#B0430C"/>
<stop offset="1" stop-color="#AF420C"/>
</linearGradient>
<radialGradient id="paint17_radial_6_3" cx="0" cy="0" r="1" gradientUnits="userSpaceOnUse" gradientTransform="translate(120.307 55.9603) rotate(130.187) scale(7.65283 8.40211)">
<stop stop-color="#B41C1C"/>
<stop offset="1" stop-color="#6E0101"/>
</radialGradient>
<linearGradient id="paint18_linear_6_3" x1="119.779" y1="47.1132" x2="119.779" y2="64.8073" gradientUnits="userSpaceOnUse">
<stop/>
<stop offset="1"/>
</linearGradient>
<radialGradient id="paint19_radial_6_3" cx="0" cy="0" r="1" gradientUnits="userSpaceOnUse" gradientTransform="translate(120.08 55.9603) rotate(130.187) scale(4.35709 4.78368)">
<stop stop-color="#A72121"/>
<stop offset="1" stop-color="#300903"/>
</radialGradient>
</defs>
</svg>
